<?xml version="1.0" encoding="utf-8"?>
<!-- Generator: Adobe Illustrator 23.0.4, SVG Export Plug-In . SVG Version: 6.00 Build 0)  -->
<svg version="1.1" id="Layer_1" xmlns="http://www.w3.org/2000/svg" xmlns:xlink="http://www.w3.org/1999/xlink" x="0px" y="0px"
	 viewBox="0 0 800 300" style="enable-background:new 0 0 800 300;" xml:space="preserve">
<style type="text/css">
	.st0{fill:#9094C2;}
	.st1{fill:#1FC9D0;}
	.st2{fill:#292A33;}
</style>
<g>
	<g>
		<path class="st0" d="M53.95,21.4C24.16,21.42,0.02,45.58,0,75.36c0,29.76,24.16,53.94,53.94,53.94l38.94,0
			c8.3,0,15.02-6.72,15.02-15.02l0-38.94C107.89,45.58,83.73,21.4,53.95,21.4z M80.92,102.32l-26.98,0
			c-14.87,0-26.96-12.1-26.96-26.97c0.01-14.86,12.12-26.97,27-26.98c14.85,0,26.95,12.1,26.95,26.97L80.92,102.32z"/>
		<path class="st0" d="M179.84,147.28l-38.94,0c-8.3,0-15.02,6.72-15.02,15.02v38.94c0,29.76,24.16,53.94,53.94,53.94
			c29.79-0.02,53.94-24.18,53.96-53.96C233.78,171.46,209.61,147.28,179.84,147.28z M179.81,228.2
			c-14.86-0.01-26.96-12.1-26.96-26.97v-26.98l26.99,0c14.87,0,26.96,12.1,26.96,26.97C206.79,216.08,194.69,228.19,179.81,228.2z"
			/>
		<path class="st1" d="M233.78,75.36c-0.02-29.79-24.17-53.94-53.95-53.96c-29.76,0-53.94,24.16-53.94,53.94l0,38.94
			c0,8.3,6.72,15.02,15.02,15.02h38.94C209.6,129.3,233.78,105.13,233.78,75.36z M152.86,102.32l-0.01-26.98
			c0-14.87,12.1-26.97,26.97-26.97c14.86,0.01,26.97,12.12,26.98,27c0,14.85-12.1,26.95-26.96,26.95H152.86z"/>
		<path class="st0" d="M107.9,201.24V162.3c0-8.3-6.72-15.02-15.02-15.02l-38.94,0C24.18,147.28,0,171.44,0,201.22
			c0.02,29.79,24.18,53.94,53.96,53.96C83.71,255.18,107.9,231.01,107.9,201.24z M26.97,201.21c0.01-14.86,12.1-26.95,26.97-26.96
			l26.98,0v26.98c0,14.87-12.09,26.97-26.97,26.96C39.1,228.19,26.99,216.09,26.97,201.21z"/>
	</g>
	<g>
		<path class="st2" d="M322.01,28.87c24.85,0,39.17,12.8,39.17,45.64c0,32.84-14.33,45.64-39.17,45.64h-31.31V28.87H322.01z
			 M321.25,104.3c11.41,0,18.51-5.32,18.51-29.79c0-24.72-7.1-29.79-18.51-29.79h-10.27v59.59H321.25z"/>
		<path class="st2" d="M390.96,92.39c1.27,10.4,6.09,13.06,13.69,13.06c7.86,0,13.44-3.04,13.44-3.04
			c3.04,2.66,5.83,8.24,5.96,13.31c0,0-7.61,5.7-22.57,5.7c-20.79,0-30.56-10.9-30.56-34.48c0-24.09,11.28-35.12,29.67-35.12
			c16.61,0,26.12,8.5,26.12,26.62c0,8.37-1.39,13.95-1.39,13.95H390.96z M400.97,66.02c-5.2,0-9.13,3.68-10.14,14.2h18.13
			c0.13-1.27,0.25-2.54,0.25-3.93C409.21,70.45,407.06,66.02,400.97,66.02z"/>
		<path class="st2" d="M508.98,51.82c12.42,0,19.02,7.73,19.02,19.27v48.05c0,0-3.68,1.02-9.76,1.02c-6.47,0-9.76-1.02-9.76-1.02
			V74.76c0-4.56-2.03-7.61-7.73-7.61c-3.17,0-5.96,1.27-8.24,3.55v48.43c0,0-3.68,1.02-9.76,1.02c-6.47,0-9.76-1.02-9.76-1.02V74.76
			c0-4.56-2.03-7.61-7.61-7.61c-3.17,0-6.09,1.27-8.37,3.42v48.56c0,0-3.68,1.02-9.76,1.02c-6.47,0-9.76-1.02-9.76-1.02V54.1
			c0,0,3.17-1.01,9.76-1.01c6.21,0,9.76,1.01,9.76,1.01v3.93c3.8-3.55,9.76-6.21,16.48-6.21c7.1,0,12.3,2.28,15.97,7.73
			C494.65,54.35,501.12,51.82,508.98,51.82z"/>
		<path class="st2" d="M569.68,51.82c18.76,0,30.56,9.51,30.56,34.74s-11.92,34.86-30.56,34.86c-18.64,0-30.68-9.63-30.68-34.86
			S551.05,51.82,569.68,51.82z M569.68,66.65c-6.59,0-10.4,3.93-10.4,19.91s3.8,20.16,10.4,20.16c6.47,0,10.27-4.18,10.27-20.16
			S576.15,66.65,569.68,66.65z"/>
		<path class="st2" d="M327.08,154.1c15.21,0,23.33,4.94,23.33,4.94c0.25,5.71-2.15,10.4-5.83,13.95c0,0-6.84-2.54-14.83-2.54
			c-12.93,0-21.17,6.72-21.17,30.93s8.24,30.55,21.17,30.55c8.62,0,15.97-2.79,15.97-2.79c3.8,3.42,5.96,8.87,5.96,14.33
			c0,0-8.37,4.94-24.6,4.94c-25.86,0-39.94-16.48-39.94-47.16C287.14,170.58,301.22,154.1,327.08,154.1z"/>
		<path class="st2" d="M388.05,178.57c18.76,0,30.56,9.51,30.56,34.74s-11.92,34.86-30.56,34.86s-30.68-9.63-30.68-34.86
			S369.41,178.57,388.05,178.57z M388.05,193.4c-6.59,0-10.4,3.93-10.4,19.91s3.8,20.16,10.4,20.16c6.47,0,10.27-4.18,10.27-20.16
			S394.51,193.4,388.05,193.4z"/>
		<path class="st2" d="M501.37,178.57c12.42,0,19.02,7.73,19.02,19.27v48.05c0,0-3.68,1.01-9.76,1.01c-6.47,0-9.76-1.01-9.76-1.01
			v-44.37c0-4.56-2.03-7.61-7.73-7.61c-3.17,0-5.96,1.27-8.24,3.55v48.43c0,0-3.68,1.01-9.76,1.01c-6.47,0-9.76-1.01-9.76-1.01
			v-44.37c0-4.56-2.03-7.61-7.61-7.61c-3.17,0-6.09,1.27-8.37,3.42v48.56c0,0-3.68,1.01-9.76,1.01c-6.47,0-9.76-1.01-9.76-1.01
			v-65.04c0,0,3.17-1.01,9.76-1.01c6.21,0,9.76,1.01,9.76,1.01v3.93c3.8-3.55,9.76-6.21,16.48-6.21c7.1,0,12.3,2.28,15.97,7.73
			C487.05,181.11,493.51,178.57,501.37,178.57z"/>
		<path class="st2" d="M569.94,178.57c13.69,0,23.45,8.37,23.45,34.74c0,25.99-9.51,34.86-23.58,34.86c-7.61,0-12.8-2.28-16.36-6.47
			v32.58c0,0-3.68,1.01-9.89,1.01c-6.21,0-9.63-1.01-9.63-1.01v-93.56c0,0,3.42-1.02,9.63-1.02c6.21,0,9.89,1.02,9.89,1.02v4.18
			C557.01,180.73,562.33,178.57,569.94,178.57z M562.71,193.78c-5.58,0-9.13,4.44-9.26,11.16v16.1c0,6.47,3.17,11.92,9.26,11.92
			c6.34,0,10.14-3.04,10.14-19.65C572.85,197.33,569.3,193.78,562.71,193.78z"/>
		<path class="st2" d="M630.4,178.57c19.02,0,26.75,7.48,26.75,23.45v43.87c0,0-2.79,1.01-8.11,1.01c-5.07,0-8.11-1.01-8.11-1.01
			l-2.28-6.21c-2.79,5.58-8.87,8.49-17.75,8.49c-12.55,0-19.65-7.23-19.65-22.06c0-14.45,8.75-20.41,25.36-20.41
			c3.81,0,7.74,0.25,11.03,0.51v-2.03c0-5.71-2.66-9.64-10.4-9.64c-7.86,0-15.46,2.92-15.46,2.92s-2.54-1.9-4.19-5.96
			c-1.77-4.06-1.27-7.73-1.27-7.73S616.32,178.57,630.4,178.57z M629.51,217.62c-5.58,0-8.75,2.41-8.75,8.62
			c0,6.59,2.66,8.87,7.35,8.87c6.97,0,9.51-6.59,9.51-13.31V218C635.09,217.74,632.3,217.62,629.51,217.62z"/>
		<path class="st2" d="M726.35,245.89c0,0-3.29,1.01-9.76,1.01c-6.59,0-9.76-1.01-9.76-1.01v-44.37c0-4.69-2.28-7.61-8.11-7.61
			c-3.17,0-6.21,1.27-8.75,3.55v48.43c0,0-3.42,1.01-9.76,1.01c-6.6,0-9.76-1.01-9.76-1.01v-65.04c0,0,3.17-1.01,9.76-1.01
			c6.34,0,9.76,1.01,9.76,1.01v3.8c4.44-4.06,10.27-6.09,16.99-6.09c12.93,0,19.4,7.73,19.4,19.02V245.89z"/>
		<path class="st2" d="M778.19,254.13c-4.82,15.85-10.77,24.47-27.38,24.47c-5.45,0-9.63-1.52-9.63-1.52s-1.14-2.92-1.14-6.97
			s1.39-7.35,1.39-7.35s3.04,0.51,5.58,0.51c6.34,0,9.63-1.14,13.18-12.3l1.27-4.06c-2.16,0-4.19-0.38-5.96-1.01l-22.19-65.17
			c0,0,3.81-1.02,10.27-1.02c6.72,0,9.89,1.02,9.89,1.02l10.27,30.05c3.3,9.76,4.06,17.5,4.06,17.5h0.51c0,0,0.89-7.61,3.81-17.5
			l9-30.05c0,0,3.3-1.02,9.39-1.02c5.83,0,9.51,1.02,9.51,1.02L778.19,254.13z"/>
	</g>
</g>
</svg>
