<?xml version="1.0" encoding="utf-8"?>
<!-- Generator: Adobe Illustrator 23.0.4, SVG Export Plug-In . SVG Version: 6.00 Build 0)  -->
<svg version="1.1" id="Layer_1" xmlns="http://www.w3.org/2000/svg" xmlns:xlink="http://www.w3.org/1999/xlink" x="0px" y="0px"
	 viewBox="0 0 602.45 363.98" style="enable-background:new 0 0 602.45 363.98;" xml:space="preserve">
<style type="text/css">
	.st0{fill:#32BCDF;}
</style>
<g>
	<path class="st0" d="M249.34,230.03c-31.01,0-47.74-11.83-47.74-32.03v-13.87h1.02c8.77,8.98,27.13,14.28,43.25,14.28
		c17.95,0,23.66-4.28,23.66-13.67c0-8.57-7.75-11.42-29.17-15.71c-30.6-6.12-42.43-17.34-42.43-38.76
		c0-25.09,22.85-47.53,58.55-47.53c34.68,0,47.94,15.71,47.94,30.19v14.89h-1.02c-9.38-9.38-26.32-13.46-41.01-13.46
		c-19.18,0-25.71,5.1-25.71,13.06c0,6.32,2.65,9.79,28.77,15.1c28.97,5.92,42.84,17.75,42.84,39.58
		C308.3,211.27,286.88,230.03,249.34,230.03z"/>
	<path class="st0" d="M378.87,230.03c-36.31,0-56.1-17.75-56.1-53.65v-61.81h15.1c16.93,0,24.28,5.71,24.28,22.85v39.99
		c0,16.52,7.75,21.63,18.36,21.63c9.18,0,16.52-5.3,16.52-23.05v-61.41h15.1c15.5,0,24.07,6.53,24.07,22.85v39.99
		C436.2,213.31,413.35,230.03,378.87,230.03z"/>
	<path class="st0" d="M522.49,143.53c-4.9-1.84-8.57-2.24-13.67-2.24c-9.38,0-16.73,4.69-16.73,18.36v67.12h-10.61
		c-16.73,0-26.93-7.75-26.93-26.52v-48.76c0-22.65,15.3-40.6,40.8-40.6c19.38,0,28.36,7.96,28.36,18.36v14.28H522.49z"/>
	<path class="st0" d="M601.43,103.96c-4.28-2.24-12.24-3.06-17.34-3.06c-9.18,0-15.51,5.3-15.51,12.04v13.26h25.71v14.08
		c0,7.55-6.94,12.44-16.73,12.44h-8.98v74.05h-11.83c-18.36,0-25.91-7.14-25.91-24.07v-77.32c0-40.39,24.28-51.61,45.49-51.61
		c18.97,0,26.11,9.59,26.11,21.22v8.98H601.43z"/>
</g>
<g>
	<path class="st0" d="M213.02,300.94c-3.93,0-7.14-2.23-8.91-5.24v15.6h-2.75c-3.15,0-6.16-2.29-6.16-6.09v-21.36
		c0-11.73,5.24-19.86,17.69-19.86c9.37,0,16.06,8.52,16.06,17.43C228.94,292.75,223.31,300.94,213.02,300.94z M211.51,271.78
		c-4.85,0-7.54,4.19-7.54,10.29c0,7.08,3.47,11.07,8.72,11.07c4.26,0,7.21-3.8,7.21-9.44C219.9,275.38,217.15,271.78,211.51,271.78z
		"/>
	<path class="st0" d="M255.87,273.35c-1.31-0.52-2.82-1.05-5.11-1.05c-3.93,0-6.09,2.16-6.09,7.54v20.31h-2.42
		c-3.93,0-6.42-1.97-6.42-5.64v-16.25c0-7.08,3.74-13.83,13.04-13.83c5.44,0,7.34,3.08,7.34,5.77v3.15H255.87z"/>
	<path class="st0" d="M275.46,300.74h-1.77c-8.39,0-14.15-4.72-14.15-11.21c0-6.29,4.59-11.07,17.56-11.07h3.08V278
		c0-4.98-2.36-6.49-7.6-6.49c-6.36,0-9.9,2.42-11.21,4.06h-0.33v-2.82c0-3.93,3.54-8.65,12.84-8.65c7.86,0,14.94,3.67,14.94,15.86
		v8.13C288.83,295.57,283.33,300.74,275.46,300.74z M280.25,284.75h-3.15c-6.68,0-8.59,1.57-8.59,4.46c0,2.75,2.23,4.39,6.09,4.39
		c3.8,0,5.64-1.84,5.64-5.44V284.75z"/>
	<path class="st0" d="M322.51,276.17c-1.18-2.03-4.52-3.67-9.57-3.67c-5.11,0-9.63,4.13-9.63,9.37c0,6.42,3.8,10.81,9.76,10.81
		c5.05,0,8.06-1.64,9.31-3.28h0.33v4.06c0,4.26-4.13,7.34-10.49,7.34c-9.7,0-18.09-7.54-18.09-17.63c0-10.09,7.01-18.74,19.07-18.74
		c5.64,0,9.63,3.41,9.63,7.6v4.13H322.51z"/>
	<path class="st0" d="M332.08,259.2c1.18-1.38,2.75-2.42,4.13-2.42h2.03v7.99h12.25v3.6c0,1.84-1.64,4.19-5.24,4.19h-7.01v13.83
		c0,4.59,2.03,6.36,5.57,6.36c2.82,0,4.98-0.39,6.36-1.24h0.33v3.15c0,3.6-2.62,5.9-7.73,5.9c-8.91,0-13.24-4.85-13.24-13.11v-21.23
		C329.52,262.73,330.18,261.42,332.08,259.2z"/>
	<path class="st0" d="M361.17,262.28c-2.82,0-5.11-2.36-5.11-5.18c0-2.82,2.29-5.11,5.11-5.11c2.82,0,5.18,2.29,5.18,5.11
		C366.35,259.92,363.99,262.28,361.17,262.28z M367.4,300.48c-6.82,0-10.55-3.87-10.55-11.01v-23.92h2.49c3.93,0,6.29,2.1,6.29,6.55
		v16.51c0,3.54,1.51,4.65,5.37,4.65h1.64v1.9C372.64,298.97,371.13,300.48,367.4,300.48z"/>
	<path class="st0" d="M404.29,276.17c-1.18-2.03-4.52-3.67-9.57-3.67c-5.11,0-9.63,4.13-9.63,9.37c0,6.42,3.8,10.81,9.76,10.81
		c5.05,0,8.06-1.64,9.31-3.28h0.33v4.06c0,4.26-4.13,7.34-10.49,7.34c-9.7,0-18.09-7.54-18.09-17.63c0-10.09,7.01-18.74,19.07-18.74
		c5.64,0,9.63,3.41,9.63,7.6v4.13H404.29z"/>
	<path class="st0" d="M424.2,286.26h-5.77c0.66,4.46,4.72,7.27,9.9,7.27c3.67,0,7.99-0.72,10.81-3.34h0.33v2.75
		c0,4.52-3.08,7.99-12.78,7.99c-8.78,0-17.37-6.95-17.37-17.76c0-11.8,7.21-19.2,17.3-19.2c7.34,0,14.16,5.24,14.16,13.7
		C440.78,284.16,435.87,286.26,424.2,286.26z M425.84,271.32c-4.26,0-7.21,3.47-7.4,7.54l-0.07,1.18h3.93
		c8.32,0,10.22-0.92,10.22-3.41C432.53,273.09,429.91,271.32,425.84,271.32z"/>
	<path class="st0" d="M244.41,352.57c-4.78,0-6.68-2.23-6.68-6.42v-13.63c0-5.83-2.62-8.32-6.49-8.32c-3.54,0-5.96,2.49-5.96,7.34
		v21.04h-2.36c-3.87,0-6.42-2.23-6.42-6.42v-13.63c0-5.83-2.69-8.32-6.55-8.32c-3.41,0-5.96,2.69-5.96,7.54v20.84h-2.36
		c-3.6,0-6.36-2.36-6.36-6.42v-13.7c0-9.63,5.05-16.05,15.73-16.05c4.59,0,8.19,2.1,10.75,5.5c2.03-3.28,5.9-5.5,10.16-5.5
		c8.13,0,14.68,4.91,14.68,14.94v21.23H244.41z"/>
	<path class="st0" d="M269.44,353.16h-1.77c-8.39,0-14.15-4.72-14.15-11.21c0-6.29,4.59-11.07,17.56-11.07h3.08v-0.46
		c0-4.98-2.36-6.49-7.6-6.49c-6.36,0-9.9,2.42-11.21,4.06h-0.33v-2.82c0-3.93,3.54-8.65,12.84-8.65c7.86,0,14.94,3.67,14.94,15.86
		v8.13C282.8,347.99,277.3,353.16,269.44,353.16z M274.22,337.17h-3.15c-6.68,0-8.59,1.57-8.59,4.46c0,2.75,2.23,4.39,6.09,4.39
		c3.8,0,5.64-1.84,5.64-5.44V337.17z"/>
	<path class="st0" d="M318.52,352.57c-3.93,0-6.42-2.49-6.42-5.77v-14.02c0-5.96-2.62-8.59-7.14-8.59c-3.8,0-6.42,2.88-6.42,7.93
		v20.45h-2.62c-3.74,0-6.16-2.49-6.16-5.77v-15.27c0-7.47,4.92-15.14,15.92-15.14c8.32,0,15.2,5.57,15.2,15.6v20.58H318.52z"/>
	<path class="st0" d="M343.74,353.16h-1.77c-8.39,0-14.15-4.72-14.15-11.21c0-6.29,4.59-11.07,17.56-11.07h3.08v-0.46
		c0-4.98-2.36-6.49-7.6-6.49c-6.36,0-9.9,2.42-11.21,4.06h-0.33v-2.82c0-3.93,3.54-8.65,12.84-8.65c7.86,0,14.94,3.67,14.94,15.86
		v8.13C357.11,347.99,351.61,353.16,343.74,353.16z M348.53,337.17h-3.15c-6.68,0-8.59,1.57-8.59,4.46c0,2.75,2.23,4.39,6.09,4.39
		c3.8,0,5.64-1.84,5.64-5.44V337.17z"/>
	<path class="st0" d="M395.11,342.68c0.07,1.44,0.13,3.34,0.13,4.52c0,8.85-5.9,16.78-17.3,16.78c-7.27,0-12.25-3.54-12.25-7.73v-4
		h0.39c2.1,2.23,6.16,3.8,11.21,3.8c6.36,0,9.44-3.02,9.24-8.13l-0.13-3.6v-0.85c-0.72,2.56-4.06,5.24-9.11,5.24
		c-8.58,0-14.68-5.96-14.68-14.29c0-9.96,6.55-18.02,17.96-18.02c8.78,0,14.42,6.42,14.42,15.47v6.03
		C394.98,339.07,395.05,341.11,395.11,342.68z M371.65,333.31c0,4.59,2.82,7.99,7.01,7.99c4.39,0,7.54-3.28,7.54-8.91
		c0-5.5-2.75-8.19-6.62-8.19C375.06,324.2,371.65,328,371.65,333.31z"/>
	<path class="st0" d="M417,338.68h-5.77c0.66,4.46,4.72,7.27,9.9,7.27c3.67,0,7.99-0.72,10.81-3.34h0.33v2.75
		c0,4.52-3.08,7.99-12.78,7.99c-8.78,0-17.37-6.95-17.37-17.76c0-11.8,7.21-19.2,17.3-19.2c7.34,0,14.16,5.24,14.16,13.7
		C433.58,336.58,428.66,338.68,417,338.68z M418.63,323.74c-4.26,0-7.21,3.47-7.4,7.54l-0.07,1.18h3.93
		c8.32,0,10.22-0.92,10.22-3.41C425.32,325.51,422.7,323.74,418.63,323.74z"/>
	<path class="st0" d="M489.54,352.57c-4.78,0-6.68-2.23-6.68-6.42v-13.63c0-5.83-2.62-8.32-6.49-8.32c-3.54,0-5.96,2.49-5.96,7.34
		v21.04h-2.36c-3.87,0-6.42-2.23-6.42-6.42v-13.63c0-5.83-2.69-8.32-6.55-8.32c-3.41,0-5.96,2.69-5.96,7.54v20.84h-2.36
		c-3.6,0-6.36-2.36-6.36-6.42v-13.7c0-9.63,5.05-16.05,15.73-16.05c4.59,0,8.19,2.1,10.75,5.5c2.03-3.28,5.9-5.5,10.16-5.5
		c8.13,0,14.68,4.91,14.68,14.94v21.23H489.54z"/>
	<path class="st0" d="M513.45,338.68h-5.77c0.66,4.46,4.72,7.27,9.9,7.27c3.67,0,7.99-0.72,10.81-3.34h0.33v2.75
		c0,4.52-3.08,7.99-12.78,7.99c-8.78,0-17.37-6.95-17.37-17.76c0-11.8,7.21-19.2,17.3-19.2c7.34,0,14.16,5.24,14.16,13.7
		C530.03,336.58,525.11,338.68,513.45,338.68z M515.09,323.74c-4.26,0-7.21,3.47-7.4,7.54l-0.07,1.18h3.93
		c8.32,0,10.22-0.92,10.22-3.41C521.77,325.51,519.15,323.74,515.09,323.74z"/>
	<path class="st0" d="M565.54,352.57c-3.93,0-6.42-2.49-6.42-5.77v-14.02c0-5.96-2.62-8.59-7.14-8.59c-3.8,0-6.42,2.88-6.42,7.93
		v20.45h-2.62c-3.74,0-6.16-2.49-6.16-5.77v-15.27c0-7.47,4.92-15.14,15.92-15.14c8.32,0,15.2,5.57,15.2,15.6v20.58H565.54z"/>
	<path class="st0" d="M579.3,311.62c1.18-1.38,2.75-2.42,4.13-2.42h2.03v7.99h12.25v3.6c0,1.84-1.64,4.19-5.24,4.19h-7.01v13.83
		c0,4.59,2.03,6.36,5.57,6.36c2.82,0,4.98-0.39,6.36-1.24h0.33v3.15c0,3.6-2.62,5.9-7.73,5.9c-8.91,0-13.24-4.85-13.24-13.11v-21.23
		C576.74,315.16,577.4,313.85,579.3,311.62z"/>
</g>
<path class="st0" d="M58.47,226.89C31.14,215.28,7.98,206.76,0,189.02c0.06,28.34,3.69,56.68,9.7,82.76
	c11.01,47.51,19.77,61.2,22.56,66.5c1.13,2.2,2.68,4.88,4.23,7.5l0,0l0.06,0.06c0.95,1.55,1.91,3.1,2.86,4.52l0.06,0.12
	c0,0,0.06,0.12,0.18,0.24c0.48,0.71,2.14,2.86,4.52,2.86c2.14,0,3.51-0.71,5-1.67l1.61-1.07l0,0l0,0l13.28-9.05
	c2.2-1.49,5.06-1.49,7.26,0l15.84,10.78c2.8,1.91,6.55,1.13,8.39-1.67c2.74-4.11,5.6-8.99,7.56-12.68
	c2.32-4.41,8.81-14.77,17.33-45.72C125.33,257.79,95.38,242.55,58.47,226.89z"/>
<path class="st0" d="M127.77,100.74C115.86,51.86,83.71,13.69,71.92,1.79c-2.32-2.38-6.13-2.38-8.45,0
	c-9.94,10.06-34.35,38.7-48.88,76.74c-8.04,35.13,22.51,43.88,59.36,59c33.52,13.75,59.84,25.54,60.67,54.83
	C136.64,161.53,134.85,130.03,127.77,100.74z"/>
</svg>
