<?xml version="1.0" encoding="UTF-8"?>
<svg width="24px" height="60px" viewBox="0 0 24 60" version="1.1" xmlns="http://www.w3.org/2000/svg" xmlns:xlink="http://www.w3.org/1999/xlink">
    <!-- Generator: Sketch 55.2 (78181) - https://sketchapp.com -->
    <title>Surf Accounts Symbol</title>
    <desc>Created with Sketch.</desc>
    <g id="UI-Library" stroke="none" stroke-width="1" fill="none" fill-rule="evenodd">
        <g id="Sidebar" transform="translate(-33.000000, -15.000000)" fill="#FFFFFF" fill-rule="nonzero">
            <g id="Content">
                <g id="Logo">
                    <g id="Surf-Accounts-Symbol" transform="translate(33.000000, 15.000000)">
                        <path d="M10.3835726,36.8938193 C5.51627297,34.7543582 1.39065705,33.2329635 0,30 C0,35.1822504 0.64897329,40.3169572 1.7151437,45.0713154 C3.66206357,53.7242472 5.23814156,56.2440571 5.70169391,57.1949287 C5.88711485,57.5752773 6.16524626,58.0982567 6.44337767,58.5736926 L6.44337767,58.5736926 L6.44337767,58.5736926 C6.62879861,58.858954 6.76786431,59.1442155 6.95328525,59.3819334 L6.95328525,59.429477 C6.95328525,59.429477 6.95328525,59.429477 6.99964049,59.4770206 C7.09235096,59.6196513 7.37048237,60 7.78767948,60 C8.15852136,60 8.39029754,59.8573693 8.66842895,59.7147385 L8.94656036,59.5245642 C8.94656036,59.5245642 8.94656036,59.5245642 8.94656036,59.5245642 L8.94656036,59.5245642 L11.3106773,57.8605388 C11.6815192,57.5752773 12.1914268,57.5752773 12.6086239,57.8605388 L15.4362933,59.8098257 C15.9462008,60.1426307 16.5951741,60 16.9196608,59.5245642 C17.3832131,58.7638669 17.8931207,57.8605388 18.2639626,57.1949287 C18.6811597,56.3866878 19.8400406,54.4849445 21.3234081,48.8748019 C22.2505128,42.503962 16.9196608,39.7464342 10.3835726,36.8938193 Z" id="Path"></path>
                        <path d="M22.6581272,17.9514276 C20.594532,9.24911532 14.908181,2.40826022 12.8445859,0.314120898 C12.4318668,-0.104706966 11.7440018,-0.104706966 11.3771404,0.314120898 C9.634549,2.12904164 5.32392806,7.20151243 2.80175623,13.9958311 C1.38016847,20.2782491 6.74551581,21.8139512 13.2114472,24.5130641 C19.1270866,26.9794949 23.7128536,29.0736342 23.8504266,34.2857143 C24.2172879,28.7944156 23.9421419,23.1635077 22.6581272,17.9514276 Z" id="Path"></path>
                    </g>
                </g>
            </g>
        </g>
    </g>
</svg>