<?xml version="1.0" encoding="utf-8"?>
<!-- Generator: Adobe Illustrator 23.0.4, SVG Export Plug-In . SVG Version: 6.00 Build 0)  -->
<svg version="1.1" id="Layer_1" xmlns="http://www.w3.org/2000/svg" xmlns:xlink="http://www.w3.org/1999/xlink" x="0px" y="0px"
	 viewBox="0 0 603.61 327.23" style="enable-background:new 0 0 603.61 327.23;" xml:space="preserve">
<style type="text/css">
	.st0{fill:#32BCDF;}
</style>
<g>
	<g>
		<path class="st0" d="M57.01,201.84C30.34,190.52,7.79,182.24,0,164.95c0.06,27.63,3.59,55.27,9.48,80.7
			c10.73,46.29,19.29,59.67,21.98,64.83c1.13,2.16,2.59,4.73,4.15,7.31l0,0l0.04,0.07c0.91,1.51,1.85,3.01,2.78,4.44l0.08,0.13
			c0,0,0.07,0.1,0.16,0.24c0.48,0.7,2.09,2.8,4.41,2.8c2.08,0,3.43-0.67,4.88-1.62l1.54-1.05c0,0,0,0,0,0l0,0l12.94-8.8
			c2.13-1.45,4.93-1.45,7.07,0l15.46,10.51c2.71,1.84,6.39,1.1,8.19-1.64c2.64-4.01,5.46-8.78,7.34-12.39
			c2.25-4.32,8.6-14.38,16.88-44.58C122.18,231.99,92.97,217.12,57.01,201.84z"/>
		<path class="st0" d="M124.54,98.17C112.94,50.5,81.61,13.34,70.11,1.72c-2.27-2.29-5.98-2.29-8.25,0
			c-9.69,9.79-33.47,37.74-47.65,74.82c-7.86,34.26,21.95,42.77,57.84,57.49c32.69,13.4,58.35,24.92,59.12,53.45
			C133.22,157.46,131.49,126.73,124.54,98.17z"/>
	</g>
	<g>
		<path class="st0" d="M210.39,327.23c-11.6,0-21.7-6.7-21.7-16.81c0-12.24,9.47-18.94,26.49-18.94h7.66v-2.66
			c0-8.3-4.15-11.7-13.41-11.7c-8.51,0-14.79,3.19-18.09,7.77h-0.53v-4.68c0-5.21,6.81-12.02,19.58-12.02
			c14.47,0,22.13,7.55,22.13,21.38v17.87C232.52,318.93,226.35,327.23,210.39,327.23z M222.95,299.57h-7.77
			c-11.38,0-16.6,3.51-16.6,9.79c0,5,4.89,8.94,12.23,8.94c8.62,0,12.13-3.4,12.13-11.59V299.57z"/>
		<path class="st0" d="M285.71,284.68c-2.02-4.26-8.94-7.45-14.47-7.45c-11.28,0-18.83,8.3-18.83,19.68
			c0,14.89,10.21,21.28,19.04,21.28c6.17,0,11.38-1.6,14.26-5h0.53v4.04c0,3.62-4.26,10-16.49,10c-11.92,0-27.24-10.43-27.24-28.83
			c0-16.17,11.06-30.21,28.19-30.21c8.51,0,15.53,4.25,15.53,12.45v4.04H285.71z"/>
		<path class="st0" d="M338.15,284.68c-2.02-4.26-8.94-7.45-14.47-7.45c-11.28,0-18.83,8.3-18.83,19.68
			c0,14.89,10.21,21.28,19.04,21.28c6.17,0,11.38-1.6,14.26-5h0.53v4.04c0,3.62-4.25,10-16.49,10c-11.91,0-27.24-10.43-27.24-28.83
			c0-16.17,11.06-30.21,28.19-30.21c8.51,0,15.53,4.25,15.53,12.45v4.04H338.15z"/>
		<path class="st0" d="M373.79,327.23c-15.11,0-26.38-11.6-26.38-28.51c0-18.83,10.32-30.43,26.38-30.43
			c15.11,0,25.53,11.38,25.53,28.3C399.32,315.74,389.22,327.23,373.79,327.23z M372.41,277.44c-9.15,0-15.21,7.45-15.21,19.26
			c0,13.09,6.38,21.38,17.55,21.38c9.57,0,14.79-8.09,14.79-19.26C389.54,284.78,383.58,277.44,372.41,277.44z"/>
		<path class="st0" d="M432.94,327.23c-13.94,0-23.19-9.68-23.19-26.39v-31.6h2.98c4.36,0,6.7,2.55,6.7,7.55v23.51
			c0,11.6,5.85,17.77,14.15,17.77c8.94,0,13.51-5.11,13.51-17.34v-31.49h2.66c4.68,0,7.02,2.45,7.02,7.55v24.89
			C456.77,318.4,448.15,327.23,432.94,327.23z"/>
		<path class="st0" d="M512.19,326.17c-3.94,0-6.06-2.02-6.06-6.28v-26.17c0-11.81-4.36-16.38-14.47-16.38
			c-8.51,0-13.41,4.79-13.41,16.38v32.45h-3.62c-3.51,0-5.96-2.13-5.96-6.6V293.5c0-15.96,9.57-25.32,24.15-25.32
			c14.26,0,22.87,8.19,22.87,25.21v32.77H512.19z"/>
		<path class="st0" d="M538.25,269.35h19.58v3.19c0,3.51-2.34,5.85-7.45,5.85h-12.02v28.19c0,8.08,3.19,11.49,9.36,11.49
			c3.51,0,6.91-0.32,8.94-1.6h0.53v3.4c0,4.79-3.72,7.34-10.32,7.34c-12.66,0-18.19-6.6-18.19-19.68v-37.02
			c0-3.3,0.85-6.49,2.45-8.83c1.38-2.02,4.57-4.04,5.96-4.04h1.17V269.35z"/>
		<path class="st0" d="M580.9,327.23c-9.57,0-17.23-4.47-17.23-11.28v-4.15h0.53c3.19,3.51,9.58,6.38,16.92,6.38
			c8.4,0,12.13-2.66,12.13-8.3c0-4.68-2.02-6.7-15-9.47c-10.64-2.23-15.64-5.85-15.64-14.36c0-9.26,8.4-17.87,22.55-17.87
			c8.4,0,16.6,3.83,16.6,10.74v4.26h-0.53c-2.45-2.98-8.62-5.85-15.32-5.85c-9.68,0-13.51,3.3-13.51,8.08
			c0,3.83,2.13,5.43,13.94,7.98c11.28,2.45,16.81,7.66,16.81,15.53C603.14,320.85,593.88,327.23,580.9,327.23z"/>
	</g>
	<g>
		<path class="st0" d="M240.35,237.67c-31.9,0-49.11-12.17-49.11-32.95v-14.27h1.05c9.02,9.23,27.91,14.69,44.49,14.69
			c18.47,0,24.34-4.41,24.34-14.06c0-8.81-7.97-11.75-30.01-16.16c-31.48-6.3-43.65-17.84-43.65-39.88
			c0-25.81,23.51-48.9,60.23-48.9c35.68,0,49.32,16.16,49.32,31.06v15.32h-1.05c-9.65-9.65-27.07-13.85-42.18-13.85
			c-19.73,0-26.44,5.25-26.44,13.43c0,6.51,2.73,10.07,29.59,15.53c29.8,6.09,44.07,18.26,44.07,40.72
			C301,218.36,278.96,237.67,240.35,237.67z"/>
		<path class="st0" d="M373.61,237.67c-37.36,0-57.71-18.26-57.71-55.2v-63.59h15.53c17.42,0,24.97,5.88,24.97,23.51v41.14
			c0,17,7.98,22.25,18.89,22.25c9.44,0,17-5.46,17-23.72v-63.17h15.53c15.95,0,24.76,6.72,24.76,23.51v41.14
			C432.58,220.46,409.07,237.67,373.61,237.67z"/>
		<path class="st0" d="M521.35,148.68c-5.04-1.89-8.81-2.31-14.06-2.31c-9.65,0-17.21,4.83-17.21,18.89v69.05h-10.91
			c-17.21,0-27.7-7.97-27.7-27.28v-50.16c0-23.3,15.74-41.76,41.97-41.76c19.94,0,29.17,8.19,29.17,18.89v14.69H521.35z"/>
		<path class="st0" d="M602.56,107.97c-4.41-2.31-12.59-3.15-17.84-3.15c-9.44,0-15.95,5.46-15.95,12.38v13.64h26.44v14.48
			c0,7.77-7.14,12.8-17.21,12.8h-9.23v76.18H556.6c-18.89,0-26.65-7.35-26.65-24.76V130c0-41.56,24.97-53.1,46.8-53.1
			c19.52,0,26.86,9.86,26.86,21.83v9.23H602.56z"/>
	</g>
</g>
</svg>
