<?xml version="1.0" encoding="utf-8"?>
<!-- Generator: Adobe Illustrator 23.0.4, SVG Export Plug-In . SVG Version: 6.00 Build 0)  -->
<svg version="1.1" id="Layer_1" xmlns="http://www.w3.org/2000/svg" xmlns:xlink="http://www.w3.org/1999/xlink" x="0px" y="0px"
	 viewBox="0 0 1024 419.6" style="enable-background:new 0 0 1024 419.6;" xml:space="preserve">
<style type="text/css">
	.st0{fill:#FFFFFF;}
</style>
<path class="st0" d="M118.9,118.5c-8.6-3.2-15-3.9-23.9-3.9c-16.4,0-29.3,8.2-29.3,32.1v117.4H47.1C17.9,264.1,0,250.6,0,217.7
	v-85.3c0-39.6,26.8-71,71.4-71c33.9,0,49.6,13.9,49.6,32.1v25H118.9z"/>
<g>
	<path class="st0" d="M227.9,190.2h-29.3c3.9,19.6,20,28.9,48.2,28.9c31.4,0,51-5,62.1-12.5h2.5v15.7c0,25-20.4,47.5-76.4,47.5
		c-67.8,0-103.5-45.7-103.5-99.9c0-59.6,40.3-108.2,101-108.2c51.4,0,91.4,28.9,91.4,78.9C323.9,179.9,294.2,190.2,227.9,190.2z
		 M232.5,112.4c-23.9,0-33.9,15.3-35.7,34.3h26.4c32.1,0,37.8-5,37.8-13.6C261.1,123.1,252.1,112.4,232.5,112.4z"/>
	<path class="st0" d="M420.6,267c-36,0-67.1-21.4-67.1-67.8V0h23.9c29.6,0,43.9,13.6,43.9,46.8v142.4c0,17.5,9.6,22.8,28.6,22.8h15
		v23.6C464.9,259.5,442,267,420.6,267z"/>
	<path class="st0" d="M564.8,269.5c-37.8,0-83.9-17.9-83.9-62.5c0-43.6,31.4-65.7,102.8-65.7h9.6v-8.2c0-16.1-12.5-20-39.3-20
		c-36.8,0-50.3,8.6-64.2,21.4h-1.8v-23.9c0-24.3,25.3-48.5,81.4-48.5c54.2,0,89.6,27.5,89.6,85.3v30.3
		C659,249.1,636.2,269.5,564.8,269.5z M594.8,183.5h-13.6c-25.7,0-36,6.4-36,19.6c0,12.5,7.8,18.9,26.8,18.9
		c12.1,0,22.8-6.1,22.8-23.9L594.8,183.5L594.8,183.5z"/>
	<path class="st0" d="M717.3,33.2c8.9-6.8,21.1-13.2,35.3-13.2h7.1v47.8h57.5v23.9c0,16.8-17.8,29.6-33.2,29.6h-24.3v71
		c0,13.2,8.2,21.1,21.4,21.1c16.1,0,23.6-1.4,30.7-4.3h1.8v26.4c0,16.4-15,31.4-50.3,31.4c-33.5,0-69.6-16.1-69.6-70V75.3
		C693.7,57.5,704.1,43.2,717.3,33.2z"/>
</g>
<path class="st0" d="M928,190.2h-29.3c3.9,19.6,20,28.9,48.2,28.9c31.4,0,51-5,62.1-12.5h2.5v15.7c0,25-20.3,47.5-76.4,47.5
	c-67.8,0-103.5-45.7-103.5-99.9c0-59.6,40.3-108.2,101-108.2c51.4,0,91.4,28.9,91.4,78.9C1024,179.9,994.4,190.2,928,190.2z
	 M932.6,112.4c-23.9,0-33.9,15.3-35.7,34.3h26.4c32.1,0,37.8-5,37.8-13.6C961.2,123.1,952.3,112.4,932.6,112.4z"/>
<g>
	<path class="st0" d="M165.9,419.6c-23.5,0-32-8.6-32-21.2v-8.6h0.8c5.6,4.2,14.3,7.5,26.5,7.5c10.8,0,14.3-2.5,14.3-6.7
		c0-3.9-2-5.5-19.9-8c-15.5-2.2-23.7-9.2-23.7-23c0-20.7,19.6-31.2,39.4-31.2c19.1,0,30.7,7.7,30.7,20.5v8.9h-0.8
		c-5.8-4.2-14.9-7.2-26.5-7.2c-11.1,0-14.7,3-14.7,6.6c0,3.3,1.9,4.4,19.9,7.4c14.4,2.4,24.1,10.2,24.1,24.8
		C204,407.9,189.6,419.6,165.9,419.6z"/>
	<path class="st0" d="M261.1,328.5c23.5,0,44.7,17.9,44.7,44.5c0,28.2-17.1,46.4-46.9,46.4c-24.6,0-44.7-18.2-44.7-43.6
		C214.2,347.3,233.9,328.5,261.1,328.5z M259.2,352c-8.2,0-15.5,8.6-15.5,20.4c0,16.6,6.6,23.8,17.1,23.8c9.4,0,15.5-8.6,15.5-20.5
		C276.3,360.2,269.5,352,259.2,352z"/>
	<path class="st0" d="M373.6,322.7c-3.3-1.7-9.4-2.4-13.3-2.4c-7.1,0-11.9,4.1-11.9,9.2v10.2h19.8v10.8c0,5.8-5.3,9.6-12.9,9.6h-6.9
		v56.9h-9.1c-14.1,0-19.9-5.5-19.9-18.5v-59.4c0-31,18.7-39.7,35-39.7c14.6,0,20.1,7.4,20.1,16.3v6.9L373.6,322.7L373.6,322.7z"/>
	<path class="st0" d="M389.6,315.6c3.9-3,9.2-5.8,15.5-5.8h3.1v21h25.2v10.5c0,7.4-7.8,13-14.6,13h-10.7v31.2c0,5.8,3.6,9.2,9.4,9.2
		c7.1,0,10.4-0.6,13.5-1.9h0.8v11.6c0,7.2-6.6,13.8-22.1,13.8c-14.7,0-30.6-7.1-30.6-30.7v-53.5C379.2,326.3,383.8,320,389.6,315.6z
		"/>
	<path class="st0" d="M570.5,361.3c-5.2,16.8-16.2,44.1-25.9,57.1h-8.3c-7.4,0-11.1-2.5-13.3-6c-5.3-8.1-11.8-24.3-15.4-35.4
		c-3.5,12.7-11.9,32.1-19.3,41.4h-7.4c-6.9,0-10.7-1.1-13.8-6c-11.9-18.4-24.3-51.9-28.4-81.6h15.8c9.9,0,15.2,6.7,16.1,12.2
		c2.2,11.9,5.6,24,10.8,36.7c6.3-14.6,11-30,14.4-45.3h11.6c7.5,0,14.9,6.1,16.5,12.9c1.7,8,6.7,22.4,11.3,32.5
		c4.7-10.8,10-29.8,12.9-48.9h14c9.2,0,13,5.8,13,10.8C575.2,345.4,572.3,355.3,570.5,361.3z"/>
	<path class="st0" d="M617.9,419.5c-16.6,0-36.8-7.8-36.8-27.4c0-19.1,13.8-28.9,45.2-28.9h4.2v-3.6c0-7.1-5.5-8.8-17.2-8.8
		c-16.2,0-22.1,3.8-28.2,9.4h-0.8v-10.5c0-10.7,11.1-21.3,35.8-21.3c23.8,0,39.4,12.1,39.4,37.5v13.3
		C659.3,410.5,649.3,419.5,617.9,419.5z M631.1,381.7h-6c-11.3,0-15.8,2.8-15.8,8.6c0,5.5,3.5,8.3,11.8,8.3c5.3,0,10-2.7,10-10.5
		L631.1,381.7L631.1,381.7z"/>
	<path class="st0" d="M726.8,353.1c-3.8-1.4-6.6-1.7-10.5-1.7c-7.2,0-12.9,3.6-12.9,14.1v51.6h-8.2c-12.9,0-20.7-6-20.7-20.4v-37.5
		c0-17.4,11.8-31.2,31.4-31.2c14.9,0,21.8,6.1,21.8,14.1v11L726.8,353.1L726.8,353.1z"/>
	<path class="st0" d="M774.7,384.6h-12.9c1.7,8.6,8.8,12.7,21.2,12.7c13.8,0,22.4-2.2,27.3-5.5h1.1v6.9c0,11-8.9,20.9-33.6,20.9
		c-29.8,0-45.5-20.1-45.5-43.9c0-26.2,17.7-47.5,44.4-47.5c22.6,0,40.2,12.7,40.2,34.7C816.9,380.1,803.8,384.6,774.7,384.6z
		 M776.7,350.5c-10.5,0-14.9,6.7-15.7,15h11.6c14.1,0,16.6-2.2,16.6-6C789.3,355.2,785.3,350.5,776.7,350.5z"/>
</g>
</svg>
