<?xml version="1.0" encoding="utf-8"?>
<!-- Generator: Adobe Illustrator 23.0.4, SVG Export Plug-In . SVG Version: 6.00 Build 0)  -->
<svg version="1.1" id="Layer_1" xmlns="http://www.w3.org/2000/svg" xmlns:xlink="http://www.w3.org/1999/xlink" x="0px" y="0px"
	 viewBox="0 0 602.5 364" style="enable-background:new 0 0 602.5 364;" xml:space="preserve">
<style type="text/css">
	.st0{fill:#FFFFFF;}
</style>
<g>
	<path class="st0" d="M249.3,230c-31,0-47.7-11.8-47.7-32v-13.9h1c8.8,9,27.1,14.3,43.2,14.3c18,0,23.7-4.3,23.7-13.7
		c0-8.6-7.8-11.4-29.2-15.7c-30.6-6.1-42.4-17.3-42.4-38.8c0-25.1,22.9-47.5,58.5-47.5c34.7,0,47.9,15.7,47.9,30.2v14.9h-1
		c-9.4-9.4-26.3-13.5-41-13.5c-19.2,0-25.7,5.1-25.7,13.1c0,6.3,2.6,9.8,28.8,15.1c29,5.9,42.8,17.8,42.8,39.6
		C308.3,211.3,286.9,230,249.3,230z"/>
	<path class="st0" d="M378.9,230c-36.3,0-56.1-17.8-56.1-53.6v-61.8h15.1c16.9,0,24.3,5.7,24.3,22.9v40c0,16.5,7.8,21.6,18.4,21.6
		c9.2,0,16.5-5.3,16.5-23.1v-61.4h15.1c15.5,0,24.1,6.5,24.1,22.9v40C436.2,213.3,413.4,230,378.9,230z"/>
	<path class="st0" d="M522.5,143.5c-4.9-1.8-8.6-2.2-13.7-2.2c-9.4,0-16.7,4.7-16.7,18.4v67.1h-10.6c-16.7,0-26.9-7.8-26.9-26.5
		v-48.8c0-22.6,15.3-40.6,40.8-40.6c19.4,0,28.4,8,28.4,18.4v14.3H522.5z"/>
	<path class="st0" d="M601.4,104c-4.3-2.2-12.2-3.1-17.3-3.1c-9.2,0-15.5,5.3-15.5,12v13.3h25.7v14.1c0,7.6-6.9,12.4-16.7,12.4h-9
		v74.1h-11.8c-18.4,0-25.9-7.1-25.9-24.1v-77.3c0-40.4,24.3-51.6,45.5-51.6c19,0,26.1,9.6,26.1,21.2v9L601.4,104L601.4,104z"/>
</g>
<g>
	<path class="st0" d="M213,300.9c-3.9,0-7.1-2.2-8.9-5.2v15.6h-2.8c-3.1,0-6.2-2.3-6.2-6.1v-21.4c0-11.7,5.2-19.9,17.7-19.9
		c9.4,0,16.1,8.5,16.1,17.4C228.9,292.8,223.3,300.9,213,300.9z M211.5,271.8c-4.9,0-7.5,4.2-7.5,10.3c0,7.1,3.5,11.1,8.7,11.1
		c4.3,0,7.2-3.8,7.2-9.4C219.9,275.4,217.1,271.8,211.5,271.8z"/>
	<path class="st0" d="M255.9,273.4c-1.3-0.5-2.8-1-5.1-1c-3.9,0-6.1,2.2-6.1,7.5v20.3h-2.4c-3.9,0-6.4-2-6.4-5.6v-16.2
		c0-7.1,3.7-13.8,13-13.8c5.4,0,7.3,3.1,7.3,5.8v3.1H255.9z"/>
	<path class="st0" d="M275.5,300.7h-1.8c-8.4,0-14.1-4.7-14.1-11.2c0-6.3,4.6-11.1,17.6-11.1h3.1V278c0-5-2.4-6.5-7.6-6.5
		c-6.4,0-9.9,2.4-11.2,4.1H261v-2.8c0-3.9,3.5-8.6,12.8-8.6c7.9,0,14.9,3.7,14.9,15.9v8.1C288.8,295.6,283.3,300.7,275.5,300.7z
		 M280.2,284.8h-3.1c-6.7,0-8.6,1.6-8.6,4.5c0,2.8,2.2,4.4,6.1,4.4c3.8,0,5.6-1.8,5.6-5.4L280.2,284.8L280.2,284.8z"/>
	<path class="st0" d="M322.5,276.2c-1.2-2-4.5-3.7-9.6-3.7c-5.1,0-9.6,4.1-9.6,9.4c0,6.4,3.8,10.8,9.8,10.8c5,0,8.1-1.6,9.3-3.3h0.3
		v4.1c0,4.3-4.1,7.3-10.5,7.3c-9.7,0-18.1-7.5-18.1-17.6s7-18.7,19.1-18.7c5.6,0,9.6,3.4,9.6,7.6v4.1L322.5,276.2L322.5,276.2z"/>
	<path class="st0" d="M332.1,259.2c1.2-1.4,2.8-2.4,4.1-2.4h2v8h12.2v3.6c0,1.8-1.6,4.2-5.2,4.2h-7v13.8c0,4.6,2,6.4,5.6,6.4
		c2.8,0,5-0.4,6.4-1.2h0.3v3.1c0,3.6-2.6,5.9-7.7,5.9c-8.9,0-13.2-4.9-13.2-13.1v-21.2C329.5,262.7,330.2,261.4,332.1,259.2z"/>
	<path class="st0" d="M361.2,262.3c-2.8,0-5.1-2.4-5.1-5.2s2.3-5.1,5.1-5.1c2.8,0,5.2,2.3,5.2,5.1S364,262.3,361.2,262.3z
		 M367.4,300.5c-6.8,0-10.5-3.9-10.5-11v-23.9h2.5c3.9,0,6.3,2.1,6.3,6.5v16.5c0,3.5,1.5,4.6,5.4,4.6h1.6v1.9
		C372.6,299,371.1,300.5,367.4,300.5z"/>
	<path class="st0" d="M404.3,276.2c-1.2-2-4.5-3.7-9.6-3.7c-5.1,0-9.6,4.1-9.6,9.4c0,6.4,3.8,10.8,9.8,10.8c5,0,8.1-1.6,9.3-3.3h0.3
		v4.1c0,4.3-4.1,7.3-10.5,7.3c-9.7,0-18.1-7.5-18.1-17.6s7-18.7,19.1-18.7c5.6,0,9.6,3.4,9.6,7.6v4.1L404.3,276.2L404.3,276.2z"/>
	<path class="st0" d="M424.2,286.3h-5.8c0.7,4.5,4.7,7.3,9.9,7.3c3.7,0,8-0.7,10.8-3.3h0.3v2.8c0,4.5-3.1,8-12.8,8
		c-8.8,0-17.4-7-17.4-17.8c0-11.8,7.2-19.2,17.3-19.2c7.3,0,14.2,5.2,14.2,13.7C440.8,284.2,435.9,286.3,424.2,286.3z M425.8,271.3
		c-4.3,0-7.2,3.5-7.4,7.5l-0.1,1.2h3.9c8.3,0,10.2-0.9,10.2-3.4C432.5,273.1,429.9,271.3,425.8,271.3z"/>
	<path class="st0" d="M244.4,352.6c-4.8,0-6.7-2.2-6.7-6.4v-13.6c0-5.8-2.6-8.3-6.5-8.3c-3.5,0-6,2.5-6,7.3v21h-2.4
		c-3.9,0-6.4-2.2-6.4-6.4v-13.6c0-5.8-2.7-8.3-6.6-8.3c-3.4,0-6,2.7-6,7.5v20.8h-2.4c-3.6,0-6.4-2.4-6.4-6.4v-13.7
		c0-9.6,5.1-16,15.7-16c4.6,0,8.2,2.1,10.8,5.5c2-3.3,5.9-5.5,10.2-5.5c8.1,0,14.7,4.9,14.7,14.9v21.2L244.4,352.6L244.4,352.6z"/>
	<path class="st0" d="M269.4,353.2h-1.8c-8.4,0-14.1-4.7-14.1-11.2c0-6.3,4.6-11.1,17.6-11.1h3.1v-0.5c0-5-2.4-6.5-7.6-6.5
		c-6.4,0-9.9,2.4-11.2,4.1H255v-2.8c0-3.9,3.5-8.6,12.8-8.6c7.9,0,14.9,3.7,14.9,15.9v8.1C282.8,348,277.3,353.2,269.4,353.2z
		 M274.2,337.2h-3.1c-6.7,0-8.6,1.6-8.6,4.5c0,2.8,2.2,4.4,6.1,4.4c3.8,0,5.6-1.8,5.6-5.4L274.2,337.2L274.2,337.2z"/>
	<path class="st0" d="M318.5,352.6c-3.9,0-6.4-2.5-6.4-5.8v-14c0-6-2.6-8.6-7.1-8.6c-3.8,0-6.4,2.9-6.4,7.9v20.5h-2.6
		c-3.7,0-6.2-2.5-6.2-5.8v-15.3c0-7.5,4.9-15.1,15.9-15.1c8.3,0,15.2,5.6,15.2,15.6v20.6L318.5,352.6L318.5,352.6z"/>
	<path class="st0" d="M343.7,353.2H342c-8.4,0-14.1-4.7-14.1-11.2c0-6.3,4.6-11.1,17.6-11.1h3.1v-0.5c0-5-2.4-6.5-7.6-6.5
		c-6.4,0-9.9,2.4-11.2,4.1h-0.3v-2.8c0-3.9,3.5-8.6,12.8-8.6c7.9,0,14.9,3.7,14.9,15.9v8.1C357.1,348,351.6,353.2,343.7,353.2z
		 M348.5,337.2h-3.1c-6.7,0-8.6,1.6-8.6,4.5c0,2.8,2.2,4.4,6.1,4.4c3.8,0,5.6-1.8,5.6-5.4L348.5,337.2L348.5,337.2z"/>
	<path class="st0" d="M395.1,342.7c0.1,1.4,0.1,3.3,0.1,4.5c0,8.9-5.9,16.8-17.3,16.8c-7.3,0-12.2-3.5-12.2-7.7v-4h0.4
		c2.1,2.2,6.2,3.8,11.2,3.8c6.4,0,9.4-3,9.2-8.1l-0.1-3.6v-0.9c-0.7,2.6-4.1,5.2-9.1,5.2c-8.6,0-14.7-6-14.7-14.3c0-10,6.5-18,18-18
		c8.8,0,14.4,6.4,14.4,15.5v6C395,339.1,395,341.1,395.1,342.7z M371.6,333.3c0,4.6,2.8,8,7,8c4.4,0,7.5-3.3,7.5-8.9
		c0-5.5-2.8-8.2-6.6-8.2C375.1,324.2,371.6,328,371.6,333.3z"/>
	<path class="st0" d="M417,338.7h-5.8c0.7,4.5,4.7,7.3,9.9,7.3c3.7,0,8-0.7,10.8-3.3h0.3v2.8c0,4.5-3.1,8-12.8,8
		c-8.8,0-17.4-7-17.4-17.8c0-11.8,7.2-19.2,17.3-19.2c7.3,0,14.2,5.2,14.2,13.7C433.6,336.6,428.7,338.7,417,338.7z M418.6,323.7
		c-4.3,0-7.2,3.5-7.4,7.5l-0.1,1.2h3.9c8.3,0,10.2-0.9,10.2-3.4C425.3,325.5,422.7,323.7,418.6,323.7z"/>
	<path class="st0" d="M489.5,352.6c-4.8,0-6.7-2.2-6.7-6.4v-13.6c0-5.8-2.6-8.3-6.5-8.3c-3.5,0-6,2.5-6,7.3v21h-2.4
		c-3.9,0-6.4-2.2-6.4-6.4v-13.6c0-5.8-2.7-8.3-6.5-8.3c-3.4,0-6,2.7-6,7.5v20.8h-2.4c-3.6,0-6.4-2.4-6.4-6.4v-13.7
		c0-9.6,5-16,15.7-16c4.6,0,8.2,2.1,10.8,5.5c2-3.3,5.9-5.5,10.2-5.5c8.1,0,14.7,4.9,14.7,14.9v21.2L489.5,352.6L489.5,352.6z"/>
	<path class="st0" d="M513.5,338.7h-5.8c0.7,4.5,4.7,7.3,9.9,7.3c3.7,0,8-0.7,10.8-3.3h0.3v2.8c0,4.5-3.1,8-12.8,8
		c-8.8,0-17.4-7-17.4-17.8c0-11.8,7.2-19.2,17.3-19.2c7.3,0,14.2,5.2,14.2,13.7C530,336.6,525.1,338.7,513.5,338.7z M515.1,323.7
		c-4.3,0-7.2,3.5-7.4,7.5l-0.1,1.2h3.9c8.3,0,10.2-0.9,10.2-3.4C521.8,325.5,519.2,323.7,515.1,323.7z"/>
	<path class="st0" d="M565.5,352.6c-3.9,0-6.4-2.5-6.4-5.8v-14c0-6-2.6-8.6-7.1-8.6c-3.8,0-6.4,2.9-6.4,7.9v20.5h-2.6
		c-3.7,0-6.2-2.5-6.2-5.8v-15.3c0-7.5,4.9-15.1,15.9-15.1c8.3,0,15.2,5.6,15.2,15.6v20.6L565.5,352.6L565.5,352.6z"/>
	<path class="st0" d="M579.3,311.6c1.2-1.4,2.8-2.4,4.1-2.4h2v8h12.2v3.6c0,1.8-1.6,4.2-5.2,4.2h-7v13.8c0,4.6,2,6.4,5.6,6.4
		c2.8,0,5-0.4,6.4-1.2h0.3v3.1c0,3.6-2.6,5.9-7.7,5.9c-8.9,0-13.2-4.9-13.2-13.1v-21.2C576.7,315.2,577.4,313.9,579.3,311.6z"/>
</g>
<path class="st0" d="M58.5,226.9C31.1,215.3,8,206.8,0,189c0.1,28.3,3.7,56.7,9.7,82.8c11,47.5,19.8,61.2,22.6,66.5
	c1.1,2.2,2.7,4.9,4.2,7.5l0,0l0.1,0.1c1,1.5,1.9,3.1,2.9,4.5l0.1,0.1c0,0,0.1,0.1,0.2,0.2c0.5,0.7,2.1,2.9,4.5,2.9
	c2.1,0,3.5-0.7,5-1.7l1.6-1.1l0,0l0,0l13.3-9c2.2-1.5,5.1-1.5,7.3,0l15.8,10.8c2.8,1.9,6.6,1.1,8.4-1.7c2.7-4.1,5.6-9,7.6-12.7
	c2.3-4.4,8.8-14.8,17.3-45.7C125.3,257.8,95.4,242.6,58.5,226.9z"/>
<path class="st0" d="M127.8,100.7c-11.9-48.9-44.1-87-55.8-98.9c-2.3-2.4-6.1-2.4-8.5,0c-9.9,10.1-34.3,38.7-48.9,76.7
	c-8,35.1,22.5,43.9,59.4,59c33.5,13.8,59.8,25.5,60.7,54.8C136.6,161.5,134.9,130,127.8,100.7z"/>
</svg>
