<?xml version="1.0" encoding="UTF-8"?>
<svg width="151px" height="45px" viewBox="0 0 151 45" version="1.1" xmlns="http://www.w3.org/2000/svg" xmlns:xlink="http://www.w3.org/1999/xlink">
    <title>Logo</title>
    <defs>
        <polygon id="path-1" points="0 0.456902285 38.4924405 0.456902285 38.4924405 40.7860431 0 40.7860431"></polygon>
    </defs>
    <g id="CSS" stroke="none" stroke-width="1" fill="none" fill-rule="evenodd">
        <g transform="translate(-99.000000, -152.000000)" id="Sidebar">
            <g>
                <g id="Box" transform="translate(30.000000, 121.000000)">
                    <g id="Company-Details">
                        <g id="Logo-Holder">
                            <g id="Logo" transform="translate(69.000000, 31.000000)">
                                <g id="Type" transform="translate(52.550548, 2.320807)" fill="#09171A" fill-rule="nonzero">
                                    <path d="M11.2482347,7.55265589 C11.2482347,5.51105693 10.1113869,3.99183006 7.75084869,3.99183006 L5.63019025,3.99183006 L5.63019025,11.1361662 L7.72898623,11.1361662 C9.93648721,11.1361662 11.2482347,9.45751812 11.2482347,7.55265589 L11.2482347,7.55265589 Z M1.21458101,15.1286263 L1.21458101,7.46069873e-14 L7.72898623,7.46069873e-14 C12.3194951,7.46069873e-14 15.7294313,2.72150182 15.7294313,7.55265589 C15.7294313,12.38381 12.3194951,15.1286263 7.75084869,15.1286263 L1.21458101,15.1286263 Z" id="Fill-1"></path>
                                    <path d="M22.245294,7.00835552 C21.0434661,7.00835552 20.6499419,7.82499511 20.5181598,8.32342251 L23.9942907,8.32342251 C23.8849784,7.84767954 23.5133166,7.00835552 22.245294,7.00835552 M16.4960748,9.63911961 C16.4960748,6.46392914 18.8353579,3.90058823 22.245294,3.90058823 C25.3491558,3.90058823 27.7321637,6.21440037 27.7321637,10.0701238 L27.7321637,10.9094478 L20.5624921,10.9094478 C20.7805093,11.6126653 21.5456954,12.2931983 22.8355804,12.2931983 C23.4258668,12.2931983 24.7376143,11.9983006 25.261706,11.5219275 L26.8795279,14.0398996 C25.8301299,14.9699613 23.9505658,15.4003354 22.3764688,15.4003354 C19.0758449,15.4003354 16.4960748,13.2459444 16.4960748,9.63911961" id="Fill-3"></path>
                                    <path d="M42.5764691,15.1285633 L42.5764691,8.73218338 C42.5764691,8.07433483 42.2485323,7.50722401 41.3746412,7.50722401 C40.5001429,7.50722401 40.0191688,8.0516504 39.7568193,8.36923246 L39.7568193,15.1285633 L35.8215769,15.1285633 L35.8215769,8.73218338 C35.8215769,8.07433483 35.5161098,7.50722401 34.619749,7.50722401 C33.7671131,7.50722401 33.286139,8.0516504 33.0237895,8.36923246 L33.0237895,15.1285633 L29.0891544,15.1285633 L29.0891544,4.17324251 L33.0237895,4.17324251 L33.0237895,5.42025619 C33.4829012,4.80840663 34.8165111,3.90102931 36.5211755,3.90102931 C38.0078227,3.90102931 39.0790831,4.46814013 39.5600572,5.82857598 C40.172206,4.8758298 41.5495409,3.90102931 43.2542053,3.90102931 C45.1993568,3.90102931 46.5111043,4.92182879 46.5111043,7.18964195 L46.5111043,15.1285633 L42.5764691,15.1285633 Z" id="Fill-5"></path>
                                    <path d="M55.8037421,9.63930865 C55.8037421,8.43703371 55.1266132,7.50697196 53.901101,7.50697196 C52.6998804,7.50697196 52.0221442,8.43703371 52.0221442,9.63930865 C52.0221442,10.864268 52.6998804,11.7936996 53.901101,11.7936996 C55.1266132,11.7936996 55.8037421,10.864268 55.8037421,9.63930865 M47.9781967,9.63930865 C47.9781967,6.57754034 50.1638352,3.90077726 53.901101,3.90077726 C57.6614438,3.90077726 59.8470823,6.57754034 59.8470823,9.63930865 C59.8470823,12.701077 57.6614438,15.4005245 53.901101,15.4005245 C50.1638352,15.4005245 47.9781967,12.701077 47.9781967,9.63930865" id="Fill-7"></path>
                                    <path d="M-2.84217094e-14,29.332799 C-2.84217094e-14,24.660436 3.45366109,21.5079299 8.02291483,21.5079299 C11.8482377,21.5079299 13.772134,23.821112 14.6460251,25.9074497 L10.8425646,27.7448887 C10.4709029,26.5652982 9.33405503,25.5451289 8.02291483,25.5451289 C5.90286369,25.5451289 4.48180391,27.2231468 4.48180391,29.332799 C4.48180391,31.4424513 5.90286369,33.1210993 8.02291483,33.1210993 C9.33405503,33.1210993 10.4709029,32.1002998 10.8425646,30.9207093 L14.6460251,32.7348338 C13.7939965,34.7537483 11.8482377,37.1576681 8.02291483,37.1576681 C3.45366109,37.1576681 -2.84217094e-14,33.9824776 -2.84217094e-14,29.332799" id="Fill-9"></path>
                                    <path d="M23.0420592,31.3967043 C23.0420592,30.1950595 22.3649303,29.2643676 21.1406326,29.2643676 C19.9381974,29.2643676 19.2604612,30.1950595 19.2604612,31.3967043 C19.2604612,32.6216637 19.9381974,33.5517254 21.1406326,33.5517254 C22.3649303,33.5517254 23.0420592,32.6216637 23.0420592,31.3967043 M15.2165138,31.3967043 C15.2165138,28.334936 17.4027596,25.6588031 21.1406326,25.6588031 C24.9003681,25.6588031 27.0860066,28.334936 27.0860066,31.3967043 C27.0860066,34.4584726 24.9003681,37.1579201 21.1406326,37.1579201 C17.4027596,37.1579201 15.2165138,34.4584726 15.2165138,31.3967043" id="Fill-11"></path>
                                    <path d="M42.0394421,36.8857069 L42.0394421,30.4899571 C42.0394421,29.8321086 41.7115053,29.2643676 40.8376142,29.2643676 C39.9631159,29.2643676 39.4821418,29.8094242 39.2191851,30.1263761 L39.2191851,36.8857069 L35.2851572,36.8857069 L35.2851572,30.4899571 C35.2851572,29.8321086 34.9790828,29.2643676 34.0821147,29.2643676 C33.2300861,29.2643676 32.749112,29.8094242 32.4873698,30.1263761 L32.4873698,36.8857069 L28.5521274,36.8857069 L28.5521274,25.9303861 L32.4873698,25.9303861 L32.4873698,27.1780299 C32.9458742,26.5655503 34.2794841,25.6588031 35.9841485,25.6588031 C37.471403,25.6588031 38.5420561,26.2252838 39.0230302,27.5863497 C39.635179,26.6336036 41.0125139,25.6588031 42.7171784,25.6588031 C44.6623298,25.6588031 45.9740773,26.6796025 45.9740773,28.9467856 L45.9740773,36.8857069 L42.0394421,36.8857069 Z" id="Fill-13"></path>
                                    <path d="M55.6821626,31.3967043 C55.6821626,30.0362685 54.763332,29.2643676 53.7145413,29.2643676 C53.2117048,29.2643676 52.4683812,29.537211 52.0973267,30.013584 L52.0973267,32.8031392 C52.4465188,33.2568278 53.2117048,33.5517254 53.7145413,33.5517254 C54.763332,33.5517254 55.6821626,32.7804547 55.6821626,31.3967043 M52.0973267,35.7288009 L52.0973267,41.0590125 L48.1620843,41.0590125 L48.1620843,25.9303861 L52.0973267,25.9303861 L52.0973267,27.0872922 C52.9493553,26.0438083 53.9768908,25.6588031 55.0700137,25.6588031 C57.6935087,25.6588031 59.7042476,27.654403 59.7042476,31.3967043 C59.7042476,35.1623202 57.6935087,37.1579201 55.0700137,37.1579201 C53.9768908,37.1579201 52.9712178,36.7722848 52.0973267,35.7288009" id="Fill-15"></path>
                                    <path d="M67.2692654,33.9147394 L67.2692654,33.3016296 C67.0063086,32.9166243 66.3291797,32.7124644 65.7170308,32.7124644 C65.0611571,32.7124644 64.3403033,32.9393088 64.3403033,33.6192116 C64.3403033,34.2997446 65.0611571,34.5045346 65.7170308,34.5045346 C66.3291797,34.5045346 67.0063086,34.2997446 67.2692654,33.9147394 L67.2692654,33.9147394 Z M67.2692654,36.88577 L67.2692654,35.8422861 C66.678979,36.6135568 65.389094,37.157353 64.0773465,37.157353 C62.5032495,37.157353 60.449393,36.0464459 60.449393,33.5517885 C60.449393,30.8296565 62.5032495,30.0590159 64.0773465,30.0590159 C65.4546813,30.0590159 66.7002342,30.5127046 67.2692654,31.2606607 L67.2692654,30.1264391 C67.2692654,29.3557985 66.5915292,28.7660033 65.3016441,28.7660033 C64.3184408,28.7660033 63.2034554,29.174323 62.372682,29.8321716 L61.0390721,27.3141996 C62.4601319,26.134609 64.4271458,25.658236 66.0231053,25.658236 C68.6466002,25.658236 71.2039005,26.6109821 71.2039005,30.2625457 L71.2039005,36.88577 L67.2692654,36.88577 Z" id="Fill-17"></path>
                                    <path d="M80.5395345,36.8857069 L80.5395345,30.8302236 C80.5395345,29.696002 79.9492481,29.2643676 79.0091625,29.2643676 C78.113409,29.2643676 77.6542973,29.7413709 77.3263605,30.1263761 L77.3263605,36.8857069 L73.391118,36.8857069 L73.391118,25.9303861 L77.3263605,25.9303861 L77.3263605,27.1780299 C77.9385093,26.4521281 79.0966123,25.6588031 80.9549212,25.6588031 C83.4035165,25.6588031 84.4741697,27.2007144 84.4741697,29.1055766 L84.4741697,36.8857069 L80.5395345,36.8857069 Z" id="Fill-19"></path>
                                    <path d="M87.0987578,37.520745 C87.3392448,37.6568516 87.667789,37.7249049 87.9295312,37.7249049 C88.6947172,37.7249049 89.1756913,37.5887983 89.3068661,37.2939007 L89.3937086,37.0670564 L85.2404488,25.9302601 L89.3937086,25.9302601 L91.4050547,32.1905335 L93.4376561,25.9302601 L97.5915231,25.9302601 L93.0010142,38.2466469 C92.0609285,40.7873034 90.3119318,41.2630463 88.0825684,41.3310996 C87.7983564,41.3310996 86.9238581,41.2630463 86.5528036,41.1502543 L87.0987578,37.520745 Z" id="Fill-21"></path>
                                </g>
                                <g id="Symbol" transform="translate(0.000000, 0.173599)">
                                    <mask id="mask-2" fill="white">
                                        <use xlink:href="#path-1"></use>
                                    </mask>
                                    <g id="Clip-24"></g>
                                    <path d="M38.4924405,24.5855773 C36.7161158,33.8187716 28.8529184,40.7860431 19.4338427,40.7860431 C8.70848508,40.7860431 -6.07290503e-05,31.7507075 -6.07290503e-05,20.6214727 C-6.07290503e-05,9.49223791 8.70848508,0.456902285 19.4344499,0.456902285 C23.7747552,0.456902285 28.5942126,2.21620608 31.7393701,5.11792311 C27.5223449,3.5079585 23.4182756,3.65603744 21.1263613,4.0662476 C14.7279485,5.33846621 10.2254968,9.64535783 8.21597249,14.538264 C4.25279466,24.1885998 10.4167933,31.9252516 17.283427,31.9189504 C21.7306153,31.9189504 25.6269912,28.8048819 27.9444118,24.8577905 C29.7243802,21.8294188 31.6822848,20.8445363 33.1057737,20.8968365 C35.1450553,20.971191 36.4889891,21.8476923 38.4924405,24.5855773" id="Fill-23" fill="#FAC05E" mask="url(#mask-2)"></path>
                                </g>
                                <path d="M38.8666529,20.4892729 C37.277981,18.9095542 35.4895104,17.7803735 33.1417253,17.695937 C30.059726,17.5875558 27.1070796,19.9984069 25.1801469,23.2807184 C23.5489646,26.0564108 21.2218274,27.9770261 18.7975237,28.549808 C13.3580226,29.8352592 7.97439232,23.8698835 11.1960684,16.0292613 C16.8007525,2.38268461 33.6433473,7.91957659 35.2065131,9.94983333 C36.4988272,11.6284814 38.8004583,15.8559775 38.8666529,20.4892729" id="Fill-26" fill="#FF5E5B"></path>
                            </g>
                        </g>
                    </g>
                </g>
            </g>
        </g>
    </g>
</svg>