<?xml version="1.0" encoding="utf-8"?>
<!-- Generator: Adobe Illustrator 23.0.4, SVG Export Plug-In . SVG Version: 6.00 Build 0)  -->
<svg version="1.1" id="Layer_1" xmlns="http://www.w3.org/2000/svg" xmlns:xlink="http://www.w3.org/1999/xlink" x="0px" y="0px"
	 viewBox="0 0 51.8 128" style="enable-background:new 0 0 51.8 128;" xml:space="preserve">
<style type="text/css">
	.st0{fill:#30BBDE;}
</style>
<g>
	<path class="st0" d="M22.4,79.4C11.9,74.9,3,71.7,0,64.9c0,10.9,1.4,21.7,3.7,31.7c4.2,18.2,7.6,23.5,8.6,25.5
		c0.4,0.8,1,1.9,1.6,2.9l0,0l0,0c0.4,0.6,0.7,1.2,1.1,1.7v0.1c0,0,0,0,0.1,0.1c0.2,0.3,0.8,1.1,1.7,1.1c0.8,0,1.3-0.3,1.9-0.6
		l0.6-0.4l0,0l0,0l5.1-3.5c0.8-0.6,1.9-0.6,2.8,0l6.1,4.1c1.1,0.7,2.5,0.4,3.2-0.6c1-1.6,2.1-3.5,2.9-4.9c0.9-1.7,3.4-5.7,6.6-17.5
		C48,91.2,36.5,85.4,22.4,79.4z"/>
	<path class="st0" d="M48.9,38.6C44.4,19.9,32,5.2,27.5,0.7c-0.9-0.9-2.4-0.9-3.2,0C20.5,4.6,11.1,15.5,5.6,30.1
		c-3.1,13.5,8.6,16.8,22.7,22.6c12.9,5.3,22.9,9.8,23.2,21C52.3,61.9,51.7,49.8,48.9,38.6z"/>
</g>
</svg>
