<?xml version="1.0" encoding="utf-8"?>
<!-- Generator: Adobe Illustrator 23.0.4, SVG Export Plug-In . SVG Version: 6.00 Build 0)  -->
<svg version="1.1" id="Layer_1" xmlns="http://www.w3.org/2000/svg" xmlns:xlink="http://www.w3.org/1999/xlink" x="0px" y="0px"
	 viewBox="0 0 1024 419.61" style="enable-background:new 0 0 1024 419.61;" xml:space="preserve">
<style type="text/css">
	.st0{fill:#039647;}
</style>
<path class="st0" d="M118.86,118.5c-8.57-3.21-14.99-3.92-23.92-3.92c-16.42,0-29.27,8.21-29.27,32.12v117.43H47.12
	C17.85,264.14,0,250.57,0,217.73v-85.31C0,92.8,26.77,61.39,71.39,61.39c33.91,0,49.61,13.92,49.61,32.13v24.98H118.86z"/>
<g>
	<path class="st0" d="M227.86,190.25h-29.27c3.93,19.63,19.99,28.91,48.19,28.91c31.41,0,51.04-5,62.11-12.49h2.5v15.71
		c0,24.99-20.35,47.47-76.39,47.47c-67.82,0-103.51-45.69-103.51-99.94c0-59.61,40.33-108.15,101.01-108.15
		c51.4,0,91.38,28.91,91.38,78.88C323.88,179.9,294.25,190.25,227.86,190.25z M232.5,112.44c-23.91,0-33.91,15.35-35.69,34.27h26.41
		c32.12,0,37.84-5,37.84-13.56C261.06,123.14,252.13,112.44,232.5,112.44z"/>
	<path class="st0" d="M420.63,266.99c-36.05,0-67.11-21.42-67.11-67.82V0h23.92c29.63,0,43.9,13.56,43.9,46.76v142.42
		c0,17.49,9.64,22.84,28.56,22.84h14.99v23.56C464.89,259.49,442.05,266.99,420.63,266.99z"/>
	<path class="st0" d="M564.82,269.49c-37.84,0-83.88-17.85-83.88-62.46c0-43.55,31.41-65.68,102.8-65.68h9.64v-8.21
		c0-16.06-12.49-19.99-39.26-19.99c-36.77,0-50.33,8.57-64.25,21.42h-1.78v-23.91c0-24.27,25.34-48.54,81.38-48.54
		c54.25,0,89.59,27.49,89.59,85.31v30.34C659.05,249.14,636.21,269.49,564.82,269.49z M594.8,183.47h-13.56
		c-25.7,0-36.05,6.43-36.05,19.63c0,12.49,7.85,18.92,26.77,18.92c12.13,0,22.84-6.07,22.84-23.91V183.47z"/>
	<path class="st0" d="M717.29,33.19c8.92-6.78,21.06-13.21,35.34-13.21h7.14v47.83h57.47v23.92c0,16.78-17.85,29.63-33.19,29.63
		h-24.27v71.03c0,13.21,8.21,21.06,21.42,21.06c16.06,0,23.56-1.43,30.7-4.28h1.78v26.41c0,16.42-14.99,31.41-50.33,31.41
		c-33.55,0-69.6-16.06-69.6-69.96V75.31C693.73,57.47,704.09,43.19,717.29,33.19z"/>
</g>
<path class="st0" d="M927.98,190.25h-29.27c3.93,19.63,19.99,28.91,48.19,28.91c31.41,0,51.04-5,62.11-12.49h2.5v15.71
	c0,24.99-20.35,47.47-76.39,47.47c-67.82,0-103.51-45.69-103.51-99.94c0-59.61,40.33-108.15,101.01-108.15
	c51.4,0,91.38,28.91,91.38,78.88C1024,179.9,994.38,190.25,927.98,190.25z M932.62,112.44c-23.91,0-33.91,15.35-35.7,34.27h26.41
	c32.13,0,37.84-5,37.84-13.56C961.18,123.14,952.26,112.44,932.62,112.44z"/>
<g>
	<path class="st0" d="M165.89,419.61c-23.52,0-31.99-8.62-31.99-21.17v-8.63h0.78c5.65,4.23,14.27,7.53,26.5,7.53
		c10.82,0,14.27-2.51,14.27-6.74c0-3.92-2.04-5.49-19.92-8c-15.52-2.2-23.68-9.25-23.68-23.05c0-20.7,19.6-31.21,39.36-31.21
		c19.13,0,30.74,7.68,30.74,20.54v8.94h-0.78c-5.8-4.23-14.9-7.21-26.5-7.21c-11.13,0-14.74,2.98-14.74,6.59
		c0,3.29,1.88,4.39,19.92,7.37c14.43,2.35,24.15,10.19,24.15,24.78C204,407.85,189.57,419.61,165.89,419.61z"/>
	<path class="st0" d="M261.06,328.5c23.52,0,44.69,17.88,44.69,44.54c0,28.23-17.09,46.42-46.89,46.42
		c-24.62,0-44.69-18.19-44.69-43.6C214.17,347.32,233.93,328.5,261.06,328.5z M259.18,352.02c-8.16,0-15.53,8.63-15.53,20.39
		c0,16.62,6.59,23.84,17.09,23.84c9.41,0,15.52-8.62,15.52-20.54C276.27,360.18,269.53,352.02,259.18,352.02z"/>
	<path class="st0" d="M373.65,322.7c-3.29-1.72-9.41-2.35-13.33-2.35c-7.06,0-11.92,4.08-11.92,9.25v10.19h19.76v10.82
		c0,5.8-5.33,9.57-12.86,9.57h-6.9v56.93h-9.1c-14.11,0-19.92-5.49-19.92-18.51v-59.44c0-31.05,18.66-39.68,34.97-39.68
		c14.58,0,20.07,7.37,20.07,16.31v6.9H373.65z"/>
	<path class="st0" d="M389.59,315.64c3.92-2.98,9.25-5.8,15.52-5.8h3.14v21.01h25.25v10.51c0,7.37-7.84,13.02-14.58,13.02h-10.66
		v31.21c0,5.8,3.61,9.25,9.41,9.25c7.06,0,10.35-0.63,13.49-1.88h0.78v11.61c0,7.21-6.59,13.8-22.11,13.8
		c-14.74,0-30.58-7.06-30.58-30.74v-53.48C379.24,326.31,383.79,320.03,389.59,315.64z"/>
	<path class="st0" d="M570.45,361.28c-5.17,16.78-16.15,44.07-25.88,57.08h-8.31c-7.37,0-11.13-2.51-13.33-5.96
		c-5.33-8.15-11.76-24.31-15.37-35.44c-3.45,12.7-11.92,32.15-19.29,41.4h-7.37c-6.9,0-10.66-1.1-13.8-5.96
		c-11.92-18.35-24.31-51.91-28.39-81.55h15.84c9.88,0,15.21,6.74,16.15,12.23c2.2,11.92,5.65,23.99,10.82,36.7
		c6.27-14.58,10.98-29.95,14.43-45.32h11.6c7.53,0,14.9,6.12,16.47,12.86c1.72,8,6.74,22.43,11.29,32.46
		c4.7-10.82,10.04-29.8,12.86-48.93h13.96c9.25,0,13.02,5.8,13.02,10.82C575.16,345.44,572.33,355.32,570.45,361.28z"/>
	<path class="st0" d="M617.93,419.46c-16.62,0-36.85-7.84-36.85-27.44c0-19.13,13.8-28.86,45.16-28.86h4.23v-3.61
		c0-7.06-5.49-8.78-17.25-8.78c-16.15,0-22.11,3.76-28.23,9.41h-0.78v-10.51c0-10.66,11.13-21.33,35.76-21.33
		c23.84,0,39.36,12.07,39.36,37.48v13.33C659.33,410.52,649.29,419.46,617.93,419.46z M631.1,381.66h-5.96
		c-11.29,0-15.84,2.82-15.84,8.63c0,5.49,3.45,8.31,11.76,8.31c5.33,0,10.04-2.67,10.04-10.51V381.66z"/>
	<path class="st0" d="M726.79,353.12c-3.76-1.41-6.59-1.72-10.51-1.72c-7.21,0-12.86,3.61-12.86,14.11v51.59h-8.15
		c-12.86,0-20.7-5.96-20.7-20.39v-37.48c0-17.41,11.76-31.21,31.36-31.21c14.9,0,21.8,6.12,21.8,14.11v10.98H726.79z"/>
	<path class="st0" d="M774.68,384.64h-12.86c1.72,8.62,8.78,12.7,21.17,12.7c13.8,0,22.43-2.2,27.29-5.49h1.1v6.9
		c0,10.98-8.94,20.86-33.56,20.86c-29.8,0-45.48-20.07-45.48-43.91c0-26.19,17.72-47.52,44.38-47.52c22.58,0,40.15,12.7,40.15,34.66
		C816.86,380.1,803.85,384.64,774.68,384.64z M776.72,350.46c-10.51,0-14.9,6.74-15.68,15.05h11.6c14.11,0,16.62-2.19,16.62-5.96
		C789.26,355.16,785.34,350.46,776.72,350.46z"/>
</g>
</svg>
